<svg xmlns="http://www.w3.org/2000/svg" xml:space="preserve" width="62" height="22" viewBox="0 0 284 99"><path style="fill:none" d="M0 0h284v99H0z"/><path d="M234.7.5c-11.7 0-22.5 4.1-30.9 11-8.4-6.9-19.2-11-30.9-11s-22.5 4.1-30.9 11c-8.4-6.9-19.2-11-30.9-11s-22.5 4.1-30.9 11C71.8 4.6 61 .5 49.3.5c-27.1 0-49 22-49 49s22 49 49 49c11.7 0 22.5-4.1 30.9-11 8.4 6.9 19.2 11 30.9 11s22.5-4.1 30.9-11c8.4 6.9 19.2 11 30.9 11s22.5-4.1 30.9-11c8.4 6.9 19.2 11 30.9 11 27.1 0 49-22 49-49s-21.9-49-49-49zm-30.9 71c-4.4-6.2-7.1-13.8-7.1-22s2.6-15.8 7.1-22c4.4 6.2 7.1 13.8 7.1 22s-2.7 15.8-7.1 22zm-61.8 0c-4.4-6.2-7.1-13.8-7.1-22s2.6-15.8 7.1-22c4.4 6.2 7.1 13.8 7.1 22s-2.7 15.8-7.1 22zm-61.8 0c-4.4-6.2-7.1-13.8-7.1-22s2.6-15.8 7.1-22c4.4 6.2 7.1 13.8 7.1 22s-2.7 15.8-7.1 22zm-68.9-22c0-21 17-38 38-38 8.7 0 16.7 2.9 23.1 7.8-6.5 8.3-10.3 18.8-10.3 30.1 0 11.4 3.9 21.8 10.3 30.1-6.4 5-14.4 8-23.1 8-21 0-38-17-38-38zM88 79.6c6.5-8.3 10.3-18.8 10.3-30.1 0-11.4-3.9-21.8-10.3-30.1 6.4-4.9 14.4-7.8 23.1-7.8 8.7 0 16.7 2.9 23.1 7.8-6.5 8.3-10.3 18.8-10.3 30.1 0 11.4 3.9 21.8 10.3 30.1-6.4 4.9-14.4 7.8-23.1 7.8-8.7.1-16.7-2.9-23.1-7.8zm61.8 0c6.5-8.3 10.3-18.8 10.3-30.1 0-11.4-3.9-21.8-10.3-30.1 6.4-4.9 14.4-7.8 23.1-7.8 8.7 0 16.7 2.9 23.1 7.8-6.5 8.3-10.3 18.8-10.3 30.1 0 11.4 3.9 21.8 10.3 30.1-6.4 4.9-14.4 7.8-23.1 7.8-8.7.1-16.7-2.9-23.1-7.8zm84.9 7.9c-8.7 0-16.7-2.9-23.1-7.8 6.5-8.3 10.3-18.8 10.3-30.1 0-11.4-3.9-21.8-10.3-30.1 6.4-4.9 14.4-7.8 23.1-7.8 21 0 38 17 38 38s-17 37.8-38 37.8z"/></svg>
